<svg width="277" height="51" xmlns="http://www.w3.org/2000/svg" xmlns:xlink="http://www.w3.org/1999/xlink" xml:space="preserve" overflow="hidden"><defs><clipPath id="clip0"><rect x="520" y="473" width="277" height="51"/></clipPath><clipPath id="clip1"><rect x="521" y="474" width="276" height="50"/></clipPath><clipPath id="clip2"><rect x="521" y="474" width="276" height="50"/></clipPath><clipPath id="clip3"><rect x="521" y="474" width="276" height="50"/></clipPath></defs><g clip-path="url(#clip0)" transform="translate(-520 -473)"><g clip-path="url(#clip1)"><g clip-path="url(#clip2)"><g clip-path="url(#clip3)"><path d="M43.2143 878.021C46.7308 878.021 49.5816 880.872 49.5816 884.388L49.5816 921.235C49.5816 924.752 46.7308 927.602 43.2143 927.602L6.3674 927.602C2.85085 927.602 0.00011268 924.752 0.00011268 921.235L0.00011268 884.388C0.00011268 880.872 2.85085 878.021 6.3674 878.021Z" fill="#000000" fill-rule="nonzero" fill-opacity="1" transform="matrix(1 0 0 1.0077 521 -410.761)"/><path d="M28.8756 904.678C28.8756 908.232 25.9936 911.115 22.4384 911.115 22.4383 911.115 22.4383 911.115 22.4383 911.115 18.8831 911.115 16.001 908.232 16.001 904.678 16.001 904.678 16.001 904.678 16.001 904.678 16.001 901.121 18.8831 898.241 22.4383 898.241 25.9935 898.241 28.8756 901.121 28.8756 904.678Z" fill="#FFFFFF" fill-rule="nonzero" fill-opacity="1" transform="matrix(1 0 0 1.0077 521 -410.761)"/><path d="M30.45 890.177C30.45 892.329 28.7053 894.071 26.5532 894.071 24.4011 894.071 22.6565 892.329 22.6565 890.177 22.6565 888.025 24.4011 886.279 26.5532 886.279 28.7053 886.279 30.45 888.025 30.45 890.177Z" fill="#FFFFFF" fill-rule="nonzero" fill-opacity="1" transform="matrix(1 0 0 1.0077 521 -410.761)"/><path d="M43.3828 901.149C43.3828 903.304 41.6381 905.047 39.4859 905.047 37.334 905.047 35.5893 903.304 35.5893 901.149 35.5893 898.997 37.334 897.254 39.4859 897.254 41.6381 897.254 43.3828 898.997 43.3828 901.149Z" fill="#FFFFFF" fill-rule="nonzero" fill-opacity="1" transform="matrix(1 0 0 1.0077 521 -410.761)"/><path d="M36.9164 915.456C36.9164 917.608 35.1718 919.351 33.0195 919.351 30.8675 919.351 29.1229 917.608 29.1229 915.456 29.1228 913.301 30.8674 911.558 33.0195 911.558 33.0195 911.558 33.0195 911.558 33.0195 911.558 35.1718 911.558 36.9164 913.301 36.9164 915.453 36.9164 915.453 36.9164 915.456 36.9164 915.456Z" fill="#FFFFFF" fill-rule="nonzero" fill-opacity="1" transform="matrix(1 0 0 1.0077 521 -410.761)"/><path d="M14.9698 913.692C14.9698 915.844 13.2252 917.586 11.0731 917.586 8.92098 917.586 7.17636 915.844 7.17633 913.692 7.17636 911.54 8.92098 909.794 11.0731 909.794 13.2252 909.794 14.9698 911.54 14.9698 913.692Z" fill="#FFFFFF" fill-rule="nonzero" fill-opacity="1" transform="matrix(1 0 0 1.0077 521 -410.761)"/><path d="M13.9902 893.116C13.9902 895.268 12.2455 897.014 10.0934 897.014 7.94128 897.014 6.19664 895.268 6.19664 893.116 6.19664 890.964 7.94128 889.221 10.0934 889.221 12.2455 889.221 13.9902 890.964 13.9902 893.116Z" fill="#FFFFFF" fill-rule="nonzero" fill-opacity="1" transform="matrix(1 0 0 1.0077 521 -410.761)"/><path d="M14.2437 894.387 11.6329 897.176 16.4336 901.67 19.0445 898.884Z" fill="#FFFFFF" fill-rule="evenodd" fill-opacity="1" transform="matrix(1 0 0 1.0077 521 -410.761)"/><path d="M35.2829 900.068 28.3532 901.502 29.1279 905.246 36.0575 903.813Z" fill="#FFFFFF" fill-rule="evenodd" fill-opacity="1" transform="matrix(1 0 0 1.0077 521 -410.761)"/><path d="M28.3105 907.929 25.5837 910.609 28.9266 914.01 31.6534 911.334Z" fill="#FFFFFF" fill-rule="evenodd" fill-opacity="1" transform="matrix(1 0 0 1.0077 521 -410.761)"/><path d="M16.2079 907.18 12.9383 909.772 15.3112 912.767 18.5808 910.175Z" fill="#FFFFFF" fill-rule="evenodd" fill-opacity="1" transform="matrix(1 0 0 1.0077 521 -410.761)"/><path d="M23.65 893.406 22.3568 897.963 26.0352 899.006 27.3284 894.449Z" fill="#FFFFFF" fill-rule="evenodd" fill-opacity="1" transform="matrix(1 0 0 1.0077 521 -410.761)"/><path d="M100.041 893.319 97.7115 893.319 89.9312 917.714 86.327 917.714 79.3378 897.582 79.1179 897.582 72.3486 917.714 68.7004 917.714 60.4366 893.319 57.9748 893.319 57.9748 889.143 68.8322 889.143 68.8322 893.319 65.6674 893.319 70.5906 909.669 70.8104 909.669 76.4807 893.319 73.9752 893.319 73.9752 889.143 84.7885 889.143 84.7885 893.319 82.4589 893.319 88.1291 909.891 88.349 909.891 92.8324 893.319 89.3159 893.319 89.3159 889.143 100.041 889.143Z" fill="#000000" fill-rule="nonzero" fill-opacity="1" transform="matrix(1 0 0 1.0077 521 -410.761)"/><path d="M117.849 911.693C117.673 913.42 116.823 914.928 115.299 916.218 113.775 917.508 111.68 918.155 109.013 918.155 106.141 918.155 103.782 917.318 101.936 915.647 100.09 913.948 99.167 911.458 99.167 908.176 99.167 905.156 100.002 902.635 101.672 900.615 103.372 898.594 105.731 897.582 108.75 897.582 111.475 897.582 113.629 898.403 115.211 900.043 116.823 901.655 117.643 903.707 117.673 906.196 117.673 907.017 117.585 907.898 117.409 908.835L104.09 908.835C104.354 912.527 106.112 914.373 109.365 914.373 110.889 914.373 111.973 914.007 112.618 913.273 113.292 912.542 113.731 911.765 113.936 910.943ZM112.837 905.934C112.955 904.762 112.676 903.663 112.002 902.635 111.358 901.583 110.259 901.055 108.706 901.055 107.299 901.055 106.229 901.523 105.497 902.461 104.764 903.397 104.31 904.556 104.134 905.934Z" fill="#000000" fill-rule="nonzero" fill-opacity="1" transform="matrix(1 0 0 1.0077 521 -410.761)"/><path d="M141.74 907.383C141.74 910.169 141.007 912.658 139.542 914.857 138.077 917.055 135.82 918.155 132.772 918.155 129.666 918.155 127.483 916.98 126.223 914.638 126.164 914.988 126.091 915.5 126.003 916.175 125.915 916.849 125.842 917.361 125.783 917.714L121.124 917.714C121.3 916.746 121.461 915.765 121.607 914.769 121.754 913.742 121.827 912.745 121.827 911.78L121.827 891.076 118.882 891.076 118.882 887.472 126.487 887.472 126.487 901.889C127.073 900.718 127.893 899.706 128.948 898.856 130.032 898.007 131.483 897.582 133.3 897.582 135.791 897.582 137.813 898.447 139.366 900.174 140.948 901.873 141.74 904.278 141.74 907.383ZM136.86 907.779C136.86 905.699 136.392 904.116 135.454 903.032 134.516 901.92 133.315 901.361 131.849 901.361 130.179 901.361 128.875 901.976 127.937 903.207 126.999 904.438 126.516 905.771 126.487 907.208L126.487 908.613C126.487 910.225 126.956 911.602 127.893 912.745 128.86 913.86 130.12 914.416 131.674 914.416 133.315 914.416 134.589 913.817 135.498 912.614 136.406 911.412 136.86 909.8 136.86 907.779Z" fill="#000000" fill-rule="nonzero" fill-opacity="1" transform="matrix(1 0 0 1.0077 521 -410.761)"/><path d="M168.157 898.46 163.938 898.813 163.058 893.319 157.476 893.319 157.476 913.539 162.267 913.539 162.267 917.714 147.981 917.714 147.981 913.539 152.597 913.539 152.597 893.319 146.97 893.319 146.091 898.813 141.915 898.46 142.795 889.143 167.278 889.143Z" fill="#000000" fill-rule="nonzero" fill-opacity="1" transform="matrix(1 0 0 1.0077 521 -410.761)"/><path d="M193.77 917.714 183.176 917.714 183.176 914.11 186.121 914.11 186.121 906.374C186.121 904.497 185.769 903.179 185.066 902.417 184.363 901.627 183.41 901.23 182.209 901.23 180.773 901.23 179.63 901.698 178.781 902.635 177.931 903.576 177.476 904.719 177.418 906.065L177.418 914.11 180.319 914.11 180.319 917.714 169.769 917.714 169.769 914.11 172.715 914.11 172.715 891.076 169.769 891.076 169.769 887.472 177.418 887.472 177.418 901.23C178.766 898.797 180.949 897.582 183.967 897.582 185.872 897.582 187.484 898.154 188.803 899.297 190.151 900.44 190.825 902.226 190.825 904.659L190.825 914.11 193.77 914.11Z" fill="#000000" fill-rule="nonzero" fill-opacity="1" transform="matrix(1 0 0 1.0077 521 -410.761)"/><path d="M198.353 893.89 198.353 888.703 203.144 888.703 203.144 893.89ZM206.221 917.714 195.671 917.714 195.671 914.11 198.617 914.11 198.617 901.627 195.496 901.627 195.496 897.979 203.276 897.979 203.276 914.11 206.221 914.11Z" fill="#000000" fill-rule="nonzero" fill-opacity="1" transform="matrix(1 0 0 1.0077 521 -410.761)"/><path d="M232.374 917.714 221.824 917.714 221.824 914.11 224.725 914.11 224.725 906.374C224.725 904.497 224.388 903.179 223.714 902.417 223.04 901.627 222.103 901.23 220.901 901.23 219.406 901.23 218.22 901.714 217.341 902.679 216.491 903.647 216.051 904.834 216.022 906.24L216.022 914.11 218.967 914.11 218.967 917.714 208.374 917.714 208.374 914.11 211.318 914.11 211.318 901.627 208.242 901.627 208.242 897.979 216.022 897.979 216.022 901.186C217.399 898.784 219.582 897.582 222.572 897.582 224.447 897.582 226.059 898.154 227.407 899.297 228.755 900.44 229.429 902.226 229.429 904.659L229.429 914.11 232.374 914.11Z" fill="#000000" fill-rule="nonzero" fill-opacity="1" transform="matrix(1 0 0 1.0077 521 -410.761)"/><path d="M256.855 901.627 253.998 901.627 253.998 916.968C253.998 920.101 253.118 922.637 251.36 924.57 249.631 926.506 247.038 927.471 243.58 927.471 241.529 927.471 239.609 927.031 237.822 926.153 236.034 925.273 234.774 923.764 234.041 921.625L237.69 919.648C238.92 922.343 240.913 923.692 243.668 923.692 245.309 923.692 246.657 923.105 247.712 921.934 248.767 920.763 249.294 919.092 249.294 916.921L249.294 913.976C248.737 915.032 247.932 915.94 246.877 916.702 245.851 917.436 244.43 917.802 242.613 917.802 240.298 917.802 238.29 916.996 236.591 915.384 234.921 913.742 234.085 911.368 234.085 908.263 234.085 905.449 234.833 902.973 236.327 900.833 237.851 898.666 240.049 897.582 242.921 897.582 245.91 897.582 248.034 898.738 249.294 901.055L249.294 897.979 256.855 897.979ZM249.294 908.307 249.294 906.724C249.294 905.084 248.825 903.779 247.888 902.813 246.95 901.845 245.778 901.361 244.371 901.361 242.73 901.361 241.47 901.964 240.591 903.163 239.712 904.338 239.272 905.934 239.272 907.954 239.272 910.037 239.712 911.574 240.591 912.57 241.47 913.539 242.584 914.023 243.932 914.023 245.602 914.023 246.906 913.435 247.844 912.264 248.811 911.09 249.294 909.772 249.294 908.307Z" fill="#000000" fill-rule="nonzero" fill-opacity="1" transform="matrix(1 0 0 1.0077 521 -410.761)"/><path d="M276 911.824C276 913.876 275.15 915.444 273.45 916.528 271.78 917.611 269.641 918.155 267.033 918.155 265.626 918.155 264.205 917.992 262.769 917.671 261.362 917.346 260.088 916.865 258.945 916.218L259.648 911.121 263.34 911.471 263.296 914.023C263.853 914.257 264.439 914.416 265.055 914.504 265.699 914.594 266.271 914.638 266.769 914.638 267.971 914.638 269.011 914.432 269.89 914.023 270.798 913.582 271.253 912.936 271.253 912.086 271.253 911.268 270.842 910.681 270.022 910.328 269.231 909.978 268.234 909.713 267.033 909.538 265.831 909.332 264.63 909.069 263.428 908.748 262.227 908.395 261.216 907.839 260.395 907.077 259.604 906.283 259.208 905.112 259.208 903.56 259.208 901.274 260.073 899.706 261.802 898.856 263.56 898.007 265.406 897.582 267.34 897.582 269.89 897.582 272.293 898.182 274.549 899.384L275.033 904.263 271.341 904.703 270.945 901.758C269.802 901.317 268.645 901.099 267.472 901.099 266.564 901.099 265.787 901.289 265.143 901.67 264.527 902.02 264.22 902.592 264.22 903.385 264.22 904.203 264.615 904.775 265.406 905.1 266.198 905.421 267.179 905.684 268.351 905.89 269.523 906.065 270.696 906.33 271.868 906.68 273.04 907.002 274.022 907.561 274.813 908.351 275.604 909.113 276 910.272 276 911.824Z" fill="#000000" fill-rule="nonzero" fill-opacity="1" transform="matrix(1 0 0 1.0077 521 -410.761)"/></g></g></g></g></svg>